<svg xmlns="http://www.w3.org/2000/svg" id="Ebene_1" data-name="Ebene 1" viewBox="0 0 640 480"><defs><style>.cls-1{fill:none;stroke:#6c707f;stroke-miterlimit:10}.cls-2{fill:#45527f}.cls-3,.cls-9{font-size:22px;font-family:Nunito,Nunito}.cls-4{letter-spacing:-.01em}.cls-5{letter-spacing:1.34em}.cls-6,.cls-7,.cls-8{letter-spacing:-.01em}.cls-9{fill:#6c707f}.cls-10{letter-spacing:-.01em}</style></defs><title>Zeichenfläche 1</title><line x1="170" x2="130" y1="110" y2="150" class="cls-1"/><line x1="170" x2="210" y1="110" y2="150" class="cls-1"/><line x1="130" x2="110" y1="150" y2="190" class="cls-1"/><line x1="150" x2="130" y1="190" y2="150" class="cls-1"/><line x1="190" x2="210" y1="190" y2="150" class="cls-1"/><line x1="230" x2="210" y1="190" y2="150" class="cls-1"/><circle cx="170" cy="110" r="10" class="cls-2"/><circle cx="130" cy="150" r="10" class="cls-2"/><circle cx="110" cy="190" r="10" class="cls-2"/><circle cx="150" cy="190" r="10" class="cls-2"/><circle cx="190" cy="190" r="10" class="cls-2"/><circle cx="230" cy="190" r="10" class="cls-2"/><circle cx="210" cy="150" r="10" class="cls-2"/><text class="cls-3" transform="translate(270 115.44)">Consol <tspan x="70.77" y="0" class="cls-4">e</tspan> <tspan x="83.02" y="0">.printlnIndented(</tspan> <tspan x="36" y="22">„</tspan> <tspan x="48.47" y="22" class="cls-6">R</tspan> <tspan x="63.44" y="22">oot“</tspan> <tspan x="0" y="44">)</tspan> <tspan x="6.84" y="44" class="cls-7">;</tspan> <tspan x="0" y="66">Consol</tspan> <tspan x="70.77" y="66" class="cls-4">e</tspan> <tspan x="83.02" y="66" class="cls-7">.</tspan> <tspan x="0" y="88">inc</tspan> <tspan x="29.06" y="88" class="cls-8">r</tspan> <tspan x="37.14" y="88">easeIndention</tspan> <tspan x="182.05" y="88" class="cls-6">Lev</tspan> <tspan x="217.63" y="88">el()</tspan> <tspan x="249.24" y="88" class="cls-7">;</tspan> <tspan x="0" y="110">Consol</tspan> <tspan x="70.77" y="110" class="cls-4">e</tspan> <tspan x="83.02" y="110">.printlnIndeted</tspan> <tspan x="0" y="132">(“l“)</tspan> <tspan x="44.12" y="132" class="cls-7">;</tspan> <tspan x="0" y="154">Consol</tspan> <tspan x="70.77" y="154" class="cls-4">e</tspan> <tspan x="83.02" y="154" class="cls-7">.</tspan> <tspan x="0" y="176">inc</tspan> <tspan x="29.06" y="176" class="cls-8">r</tspan> <tspan x="37.14" y="176">easeIndention</tspan> <tspan x="182.05" y="176" class="cls-6">Lev</tspan> <tspan x="217.63" y="176">el()</tspan> <tspan x="0" y="198">Consol</tspan> <tspan x="70.77" y="198" class="cls-4">e</tspan> <tspan x="83.02" y="198">.printlnIndeted</tspan> <tspan x="0" y="220">(“ll“)</tspan> <tspan x="49.61" y="220" class="cls-7">;</tspan> <tspan x="0" y="242">Consol</tspan> <tspan x="70.77" y="242" class="cls-4">e</tspan> <tspan x="83.02" y="242">.printlnIndeted</tspan> <tspan x="0" y="264">(“lr“)</tspan> <tspan x="52.31" y="264" class="cls-7">;</tspan></text><text class="cls-9" transform="translate(100 235.44)"><tspan class="cls-8">r</tspan> <tspan x="8.08" y="0">oot</tspan> <tspan x="36" y="20.5">l</tspan> <tspan x="0" y="41" class="cls-5" xml:space="preserve"> </tspan> <tspan x="72" y="41">ll</tspan> <tspan x="0" y="61.5" class="cls-5" xml:space="preserve"> </tspan> <tspan x="72" y="61.5">lr</tspan> <tspan x="36" y="82">r</tspan> <tspan x="0" y="102.5" class="cls-5" xml:space="preserve"> </tspan> <tspan x="72" y="102.5">rl</tspan> <tspan x="0" y="123" class="cls-5" xml:space="preserve"> </tspan> <tspan x="72" y="123" class="cls-10">r</tspan> <tspan x="80.05" y="123">r</tspan> <tspan x="0" y="143.5">(End t</tspan> <tspan x="60.8" y="143.5" class="cls-8">r</tspan> <tspan x="68.88" y="143.5">ee)</tspan></text></svg>